<?xml version="1.0" standalone="no"?>
<!DOCTYPE svg PUBLIC "-//W3C//DTD SVG 20010904//EN"
 "http://www.w3.org/TR/2001/REC-SVG-20010904/DTD/svg10.dtd">
<svg version="1.0" xmlns="http://www.w3.org/2000/svg"
 width="1000.000000pt" height="1000.000000pt" viewBox="0 0 1000.000000 1000.000000"
 preserveAspectRatio="xMidYMid meet">

<g transform="translate(0.000000,1000.000000) scale(0.100000,-0.100000)"
fill="#ffffff" stroke="none">
<path d="M5110 7858 c-21 -13 -47 -47 -65 -81 -19 -36 -45 -68 -72 -87 -56
-40 -70 -63 -78 -137 -6 -53 -12 -67 -36 -88 -17 -13 -49 -29 -72 -35 -23 -6
-58 -15 -77 -20 -19 -6 -46 -23 -60 -39 -14 -17 -80 -57 -150 -93 -212 -107
-364 -218 -542 -395 -90 -90 -105 -109 -97 -125 8 -14 3 -26 -20 -56 -43 -53
-81 -145 -81 -195 0 -66 27 -154 67 -218 38 -63 59 -68 50 -12 -5 30 -4 33 14
28 25 -8 24 5 -5 63 -21 42 -22 50 -10 67 13 17 16 18 24 5 5 -8 10 -18 10
-22 0 -5 8 -8 18 -8 16 0 17 10 14 108 l-4 107 84 -86 c93 -97 195 -177 207
-163 4 5 43 61 86 124 106 157 224 306 324 412 83 88 101 101 101 74 0 -27
155 -321 223 -424 38 -57 104 -147 147 -202 73 -91 84 -100 132 -115 67 -20
175 -19 235 1 59 20 135 71 130 87 -12 41 -205 59 -339 33 -38 -7 -68 -11 -68
-9 0 8 106 51 160 64 66 16 236 17 266 1 15 -8 24 -25 28 -56 5 -32 13 -47 27
-51 26 -9 25 -14 -21 -75 -22 -29 -40 -57 -40 -62 0 -11 28 -10 51 2 16 9 19
7 19 -8 0 -21 -49 -99 -80 -127 -21 -19 -27 -45 -10 -45 17 0 70 29 132 73 55
38 69 60 94 145 3 10 12 9 41 -4 104 -46 253 -69 253 -39 0 57 -145 437 -232
608 -177 348 -345 518 -546 552 l-42 7 25 -48 c43 -80 31 -124 -34 -124 -80 0
-165 69 -221 179 l-30 60 76 -54 c69 -50 140 -82 153 -69 3 3 6 29 6 57 0 54
6 59 54 46 10 -3 20 15 33 58 13 44 28 70 53 92 l36 31 -53 1 c-29 1 -84 1
-123 0 -68 0 -69 0 -39 14 17 7 71 19 120 25 99 13 135 24 158 49 15 16 14 21
-12 57 -71 97 -172 155 -286 162 -62 3 -75 1 -106 -20z m433 -1078 c19 -52 47
-137 60 -187 28 -102 31 -97 -45 -87 l-45 6 -7 98 c-5 81 -19 178 -52 360 -6
36 48 -79 89 -190z"/>
<path d="M4770 6745 c0 -5 9 -62 19 -126 18 -109 19 -122 4 -205 -20 -114 -13
-257 15 -336 11 -32 57 -109 105 -175 134 -187 216 -332 263 -465 19 -53 14
-48 -76 85 -68 101 -163 217 -179 217 -3 0 -19 -45 -35 -101 -33 -114 -83
-224 -127 -281 -45 -57 -101 -90 -221 -133 l-108 -38 75 -42 c41 -24 105 -65
142 -93 128 -95 296 -286 337 -383 l12 -30 54 88 c65 106 207 256 319 336 104
76 248 150 341 177 41 12 83 24 93 26 20 6 23 77 6 152 -19 81 -143 320 -225
430 l-75 102 -79 0 c-56 0 -96 6 -135 21 -64 24 -149 97 -184 159 l-23 42 23
-7 c68 -19 65 -20 49 2 -8 11 -43 54 -78 94 -87 103 -182 247 -252 381 -33 62
-60 109 -60 103z"/>
<path d="M4024 6145 c-8 -55 13 -95 51 -95 30 0 40 29 25 75 -10 31 -42 65
-62 65 -4 0 -10 -20 -14 -45z"/>
<path d="M4180 5935 c0 -49 42 -105 79 -105 18 0 43 48 36 69 -5 17 -80 61
-105 61 -5 0 -10 -11 -10 -25z"/>
<path d="M4030 5863 c-56 -21 -79 -89 -39 -117 37 -25 64 2 78 79 9 47 2 53
-39 38z"/>
<path d="M4212 5638 c38 -70 108 -84 108 -23 0 32 -51 65 -98 65 l-33 0 23
-42z"/>
<path d="M3100 4939 c-193 -10 -389 -35 -585 -74 -251 -51 -238 -45 -289 -123
-24 -37 -58 -86 -76 -109 -17 -24 -28 -43 -23 -43 5 0 48 11 97 25 403 117
697 160 1096 159 233 0 296 -3 415 -22 445 -70 795 -224 1047 -461 51 -47 88
-79 83 -71 -87 152 -247 317 -414 429 -314 212 -812 319 -1351 290z"/>
<path d="M6615 4943 c-692 -23 -1195 -265 -1471 -708 -11 -18 20 6 74 56 254
238 604 392 1047 461 118 18 184 22 415 22 168 1 316 -4 380 -12 229 -28 511
-86 735 -152 38 -11 74 -20 78 -20 5 0 -6 19 -23 43 -18 23 -52 72 -77 109
-52 77 -40 72 -262 118 -176 37 -411 68 -569 75 -222 10 -247 11 -327 8z"/>
<path d="M3215 4574 c-411 -31 -625 -64 -949 -145 -188 -47 -211 -57 -226
-103 -14 -43 -4 -81 27 -106 36 -28 63 -26 247 20 635 157 1249 183 1685 71
192 -50 358 -132 494 -244 35 -29 60 -64 98 -138 60 -117 127 -185 217 -220
49 -20 76 -23 192 -23 119 0 142 2 195 23 84 34 158 111 218 228 60 116 135
181 307 268 226 114 460 163 815 172 371 9 798 -43 1194 -147 134 -35 169 -37
204 -10 31 25 41 63 27 106 -15 46 -37 56 -226 103 -452 114 -933 166 -1300
142 -425 -28 -710 -113 -963 -288 -131 -91 -171 -132 -212 -220 -72 -154 -118
-188 -259 -188 -141 0 -185 32 -259 188 -44 93 -98 146 -249 244 -196 129
-475 220 -772 252 -105 12 -426 21 -505 15z"/>
<path d="M2033 3159 c15 -9 17 -26 17 -132 0 -82 -4 -127 -12 -135 -9 -9 -4
-12 26 -12 34 0 36 1 22 16 -23 23 -23 235 0 258 14 15 12 16 -28 16 -34 -1
-39 -3 -25 -11z"/>
<path d="M2189 3115 c-30 -16 -59 -70 -59 -110 0 -41 29 -94 61 -110 41 -22
117 -19 157 5 26 16 32 26 32 54 0 19 6 37 13 39 6 3 -4 6 -22 6 -27 1 -32 -2
-23 -11 36 -36 -3 -88 -72 -95 -40 -5 -48 -2 -75 24 -16 17 -33 42 -37 57 -27
111 99 194 177 117 18 -18 29 -24 29 -15 0 8 -9 23 -20 34 -24 24 -120 27
-161 5z"/>
<path d="M2433 3119 c14 -8 17 -25 17 -112 0 -67 -4 -107 -12 -115 -9 -9 6
-12 69 -12 65 0 82 3 87 16 9 24 7 29 -6 16 -7 -7 -34 -12 -60 -12 l-48 0 0
109 c0 78 4 111 13 114 6 3 -8 6 -33 6 -35 0 -41 -2 -27 -10z"/>
<path d="M2633 3119 c14 -8 17 -25 17 -112 0 -67 -4 -107 -12 -115 -9 -9 6
-12 69 -12 65 0 82 3 87 16 9 24 7 29 -6 16 -7 -7 -34 -12 -60 -12 l-48 0 0
50 0 50 39 0 c22 0 42 -5 44 -12 3 -7 6 0 6 17 1 22 -2 26 -11 17 -7 -7 -27
-12 -45 -12 l-33 0 0 55 0 55 39 0 c23 0 46 -7 55 -16 15 -14 16 -14 16 5 0
20 -6 21 -87 21 -65 -1 -83 -3 -70 -11z"/>
<path d="M2857 3112 c-26 -29 -21 -61 15 -90 17 -15 45 -39 61 -55 27 -25 28
-29 14 -50 -21 -32 -70 -35 -91 -6 -18 26 -36 17 -20 -9 17 -27 98 -28 123 -3
36 36 27 65 -33 113 -60 47 -74 71 -56 93 15 18 61 20 78 3 9 -9 12 -8 12 5 0
25 -81 24 -103 -1z"/>
<path d="M3033 3119 c14 -8 17 -25 17 -109 0 -76 -4 -102 -16 -114 -14 -15
-11 -16 28 -16 34 1 39 3 26 11 -15 8 -18 25 -18 114 0 89 3 106 18 114 13 8
7 10 -28 10 -35 0 -41 -2 -27 -10z"/>
<path d="M3242 3110 c-38 -93 -102 -219 -114 -223 -7 -3 5 -6 27 -6 29 -1 36
2 28 10 -9 9 -7 20 5 45 15 32 19 34 64 34 45 0 49 -2 62 -32 9 -22 10 -37 3
-45 -7 -10 -1 -13 28 -13 29 0 35 3 27 13 -6 7 -35 64 -65 127 -51 107 -55
113 -65 90z m48 -121 c0 -5 -18 -9 -41 -9 -37 0 -40 2 -33 23 3 12 13 35 21
51 l15 29 19 -43 c10 -23 19 -46 19 -51z"/>
<path d="M3508 3123 c17 -7 17 -214 0 -231 -16 -16 86 -17 131 -1 55 19 62 98
11 114 -20 6 -20 8 -5 25 24 26 16 72 -15 87 -14 7 -50 12 -80 12 -30 0 -49
-3 -42 -6z m96 -13 c20 -7 26 -17 26 -39 0 -32 -14 -47 -50 -54 -24 -4 -24 -4
3 -6 27 -1 77 -40 77 -59 0 -23 -38 -53 -72 -59 l-38 -6 0 117 c0 125 1 127
54 106z"/>
<path d="M3785 3038 c-22 -51 -50 -107 -62 -125 l-22 -33 29 0 c21 0 28 4 24
14 -3 8 2 28 11 45 14 27 21 31 59 31 50 0 68 -16 70 -60 1 -27 4 -30 34 -30
l33 0 -18 23 c-10 13 -38 69 -63 125 -24 56 -47 102 -50 102 -3 0 -23 -42 -45
-92z m65 -4 c11 -26 20 -48 20 -50 0 -2 -20 -4 -44 -4 l-44 0 21 50 c11 28 22
50 24 50 1 0 11 -21 23 -46z"/>
<path d="M3968 3123 c8 -3 12 -31 12 -89 0 -122 21 -153 102 -154 35 0 54 6
74 24 26 22 28 30 32 117 3 54 9 97 16 101 6 4 -7 8 -29 8 -32 -1 -36 -3 -22
-11 13 -8 17 -24 17 -78 0 -78 -14 -127 -40 -141 -32 -17 -75 -11 -98 13 -19
20 -22 35 -22 114 0 64 4 93 13 96 6 3 -6 5 -28 5 -22 0 -34 -2 -27 -5z"/>
<path d="M4220 3108 c0 -20 1 -21 13 -4 9 12 23 17 47 14 l35 -3 3 -104 c2
-67 -1 -108 -9 -117 -9 -12 -5 -14 27 -13 22 0 33 3 27 6 -9 3 -13 37 -13 119
l0 114 40 0 c27 0 42 -6 49 -17 9 -16 10 -16 11 5 0 22 -2 22 -115 22 -112 0
-115 -1 -115 -22z"/>
<path d="M4483 3119 c14 -8 17 -25 17 -114 0 -89 -3 -106 -17 -114 -14 -8 -8
-10 27 -10 35 0 41 2 28 10 -15 8 -18 25 -18 114 0 89 3 106 18 114 13 8 7 10
-28 10 -35 0 -41 -2 -27 -10z"/>
<path d="M4616 3114 c-9 -8 -16 -28 -16 -44 0 -24 11 -37 55 -71 59 -45 72
-79 36 -99 -32 -17 -58 -12 -80 16 l-21 27 0 -26 c0 -30 25 -41 80 -35 40 4
73 42 64 75 -3 12 -30 41 -60 64 -54 41 -65 64 -42 87 18 18 65 15 77 -5 9
-16 10 -16 11 5 0 19 -5 22 -44 22 -27 0 -51 -6 -60 -16z"/>
<path d="M4750 3108 c1 -21 2 -21 11 -5 7 11 22 17 49 17 l40 0 0 -108 c0 -71
-4 -112 -12 -120 -9 -9 -3 -12 27 -12 30 0 36 3 27 12 -8 8 -12 49 -12 120 l0
108 40 0 c27 0 42 -6 49 -17 9 -16 10 -16 11 5 0 22 -2 22 -115 22 -113 0
-115 0 -115 -22z"/>
<path d="M5030 3024 c-28 -59 -58 -116 -67 -126 -15 -17 -14 -18 22 -18 29 0
35 3 27 13 -7 8 -6 22 3 45 13 30 17 32 63 32 46 0 51 -2 62 -30 7 -16 10 -36
6 -45 -4 -12 3 -15 31 -15 34 0 35 1 20 18 -8 9 -36 64 -62 122 -26 58 -49
107 -51 109 -2 2 -26 -45 -54 -105z m70 10 c11 -25 20 -48 20 -50 0 -2 -18 -4
-40 -4 -22 0 -40 3 -40 7 0 11 32 93 37 93 2 0 13 -21 23 -46z"/>
<path d="M5333 3119 c14 -8 17 -25 17 -112 0 -67 -4 -107 -12 -115 -9 -9 -3
-12 28 -11 21 0 33 3 27 6 -8 3 -13 25 -13 59 l0 54 39 0 c22 0 42 -5 44 -12
3 -7 5 1 5 17 0 17 -2 24 -5 18 -2 -8 -22 -13 -44 -13 l-39 0 0 55 0 55 45 0
c31 0 47 -5 54 -17 9 -16 10 -16 11 5 0 21 -3 22 -87 22 -65 -1 -83 -3 -70
-11z"/>
<path d="M5526 3122 c7 -4 13 -45 15 -100 4 -88 6 -95 32 -118 21 -18 40 -24
75 -24 81 1 102 32 102 154 0 58 4 86 13 89 6 3 -4 5 -23 5 -19 0 -29 -2 -22
-5 8 -3 12 -32 12 -94 0 -82 -2 -92 -25 -114 -34 -35 -86 -34 -114 1 -18 22
-21 41 -21 115 0 60 4 89 13 92 6 3 -6 6 -28 6 -22 0 -35 -3 -29 -7z"/>
<path d="M5820 3017 c0 -74 -4 -117 -12 -125 -9 -9 -5 -12 21 -12 28 0 31 2
22 14 -8 9 -11 44 -9 96 l3 82 102 -96 c55 -53 103 -96 105 -96 1 0 1 50 0
112 -3 98 -2 113 14 125 16 12 14 13 -20 13 -34 0 -36 -1 -22 -16 12 -11 16
-36 16 -95 l0 -80 -27 20 c-16 11 -57 49 -93 86 -103 105 -100 106 -100 -28z"/>
<path d="M6123 3119 c14 -8 17 -25 17 -112 0 -67 -4 -107 -12 -115 -9 -9 5
-12 65 -12 130 0 181 34 181 124 1 61 -17 90 -71 112 -39 17 -208 19 -180 3z
m163 -14 c66 -27 82 -128 29 -181 -21 -20 -34 -24 -90 -24 l-65 0 0 103 c0 57
3 107 7 110 12 12 83 7 119 -8z"/>
<path d="M6466 3022 c-27 -59 -56 -115 -64 -124 -14 -17 -13 -18 14 -18 25 0
29 4 30 30 2 44 20 60 70 60 38 0 45 -4 59 -31 9 -17 14 -37 11 -45 -4 -10 4
-14 31 -14 31 0 34 2 21 13 -9 6 -37 61 -63 120 -26 59 -51 109 -54 111 -3 3
-28 -44 -55 -102z m73 -40 c-10 -2 -30 -2 -43 0 l-25 3 22 49 21 50 22 -50
c21 -47 21 -49 3 -52z"/>
<path d="M6710 3125 c0 -33 -35 -223 -42 -232 -8 -10 -5 -13 13 -13 23 0 24 4
27 72 5 111 13 112 64 12 l46 -88 48 95 48 94 8 -60 c5 -33 7 -75 5 -92 -3
-31 -1 -33 31 -33 29 0 31 2 19 14 -8 8 -19 58 -26 117 -8 57 -16 108 -19 113
-3 5 -28 -37 -57 -94 l-52 -103 -52 102 c-46 89 -61 113 -61 96z"/>
<path d="M7028 3123 c8 -3 12 -37 12 -118 0 -81 -4 -115 -12 -118 -7 -3 24 -6
70 -6 80 -1 83 0 92 25 14 36 12 42 -6 16 -12 -18 -25 -22 -65 -22 l-49 0 0
51 0 51 45 -4 c26 -2 45 1 45 7 0 6 -19 9 -45 7 l-45 -4 0 56 0 56 45 0 c31 0
47 -5 54 -17 9 -16 10 -16 11 5 0 21 -3 22 -82 21 -46 0 -77 -3 -70 -6z"/>
<path d="M7250 3019 c0 -76 -4 -119 -12 -127 -9 -9 -4 -12 23 -11 18 0 28 3
22 6 -9 3 -13 32 -13 95 l0 90 103 -95 102 -96 3 112 c2 91 6 114 19 125 14
10 10 12 -28 11 -24 -1 -36 -3 -26 -6 15 -4 17 -17 17 -96 l0 -91 -67 64 c-38
36 -85 81 -105 100 l-38 34 0 -115z"/>
<path d="M7520 3114 c0 -13 3 -14 14 -5 8 7 30 11 48 9 l33 -3 3 -104 c2 -67
-1 -108 -9 -117 -9 -12 -5 -14 27 -13 22 0 33 3 27 6 -9 3 -13 37 -13 120 l0
116 45 -5 c25 -3 45 -2 45 3 0 5 -49 9 -110 9 -95 0 -110 -2 -110 -16z"/>
<path d="M7796 3022 c-27 -59 -56 -115 -64 -124 -14 -17 -13 -18 14 -18 25 0
29 4 30 30 2 44 20 60 70 60 38 0 45 -4 59 -31 9 -17 14 -37 11 -45 -4 -10 4
-14 31 -14 31 0 34 2 21 13 -9 6 -37 59 -62 117 -26 58 -50 108 -54 112 -4 4
-29 -41 -56 -100z m73 -40 c-10 -2 -30 -2 -43 0 l-25 3 22 49 21 50 22 -50
c21 -47 21 -49 3 -52z"/>
<path d="M8008 3123 c8 -3 12 -37 12 -118 0 -81 -4 -115 -12 -119 -7 -3 25 -4
71 -3 79 2 84 3 93 26 8 24 8 24 -10 8 -12 -11 -35 -17 -65 -17 l-47 0 0 105
c0 88 3 106 18 114 13 8 7 10 -28 10 -25 0 -39 -3 -32 -6z"/>
<path d="M1157 2508 c-41 -320 -48 -345 -98 -359 -13 -4 21 -7 76 -7 66 -1 93
2 79 8 -12 5 -25 13 -28 19 -8 12 25 341 33 341 4 0 58 -86 120 -190 63 -105
117 -193 121 -195 5 -3 11 7 14 23 8 32 195 362 205 362 9 0 43 -329 35 -342
-3 -5 -16 -13 -28 -18 -13 -6 33 -9 124 -8 106 0 136 2 113 9 -18 5 -37 18
-42 28 -6 10 -29 155 -51 322 -23 167 -43 306 -46 308 -3 3 -8 0 -12 -6 -4 -6
-65 -113 -137 -237 -71 -124 -133 -225 -136 -226 -3 0 -70 106 -149 235 -79
129 -146 235 -149 235 -3 0 -23 -136 -44 -302z"/>
<path d="M8441 2789 c-52 -17 -76 -32 -121 -77 -73 -74 -95 -133 -94 -254 0
-79 3 -94 35 -155 60 -118 164 -175 324 -176 151 -1 263 47 325 140 40 61 53
112 54 203 0 109 -24 172 -94 241 -47 47 -68 61 -124 78 -90 28 -216 28 -305
0z m266 -55 c21 -17 51 -56 68 -89 28 -56 30 -67 30 -175 0 -99 -3 -122 -23
-165 -43 -93 -103 -138 -187 -138 -59 0 -86 12 -138 62 -104 99 -103 374 1
485 41 43 79 57 149 53 51 -2 69 -8 100 -33z"/>
<path d="M5504 2715 c-24 -67 -240 -524 -256 -542 -11 -12 -30 -24 -42 -26
-11 -2 21 -5 73 -6 91 -1 93 -1 71 17 l-22 18 26 57 25 57 96 0 96 0 25 -56
c26 -59 25 -70 -10 -84 -12 -5 123 -9 334 -9 l356 -1 17 82 c19 88 16 109 -6
57 -8 -19 -29 -47 -46 -64 -30 -28 -38 -30 -122 -34 l-89 -3 2 248 3 248 25
13 c21 11 7 13 -100 13 -107 0 -121 -2 -100 -13 l25 -13 3 -248 c2 -175 -1
-253 -9 -262 -18 -21 -63 -17 -86 9 -12 12 -75 135 -140 272 -66 138 -124 259
-130 270 -12 20 -12 20 -19 0z m14 -297 c18 -43 32 -82 32 -88 0 -6 -31 -10
-75 -10 -47 0 -75 4 -75 11 0 22 73 180 80 172 3 -4 21 -43 38 -85z"/>
<path d="M6990 2718 c0 -7 -56 -132 -123 -278 -113 -243 -126 -266 -157 -282
l-35 -18 95 1 c67 0 88 3 73 9 -28 12 -29 24 -2 89 l22 51 97 0 98 0 21 -49
c27 -63 26 -79 -1 -91 -15 -5 74 -9 242 -9 189 1 257 3 237 11 -15 5 -29 19
-32 31 -3 12 -4 126 -3 252 l3 230 45 -2 c37 -2 50 -8 74 -34 26 -29 28 -37
24 -90 -5 -69 -32 -105 -85 -115 -33 -6 -33 -7 -14 -21 12 -8 36 -48 55 -89
78 -168 90 -174 361 -173 110 1 191 4 180 6 -11 3 -28 12 -37 21 -16 14 -18
39 -18 253 l0 238 26 20 27 21 -116 0 -116 0 24 -25 25 -24 0 -228 c0 -191 -3
-232 -16 -251 -33 -48 -78 -19 -159 103 -31 47 -67 92 -81 101 l-25 17 37 21
c52 29 76 66 81 123 6 65 -20 111 -77 141 -41 20 -57 22 -224 22 -166 0 -179
-1 -158 -16 22 -15 22 -18 22 -263 0 -179 -3 -250 -12 -259 -16 -16 -59 -15
-83 2 -11 8 -78 138 -150 290 -71 151 -133 276 -137 276 -5 0 -8 -6 -8 -12z
m14 -300 c20 -48 36 -89 36 -92 0 -3 -36 -6 -80 -6 -44 0 -80 2 -80 4 0 6 69
165 76 178 8 13 8 14 48 -84z"/>
<path d="M2193 2710 c-112 -24 -199 -93 -228 -181 -22 -65 -17 -188 10 -243
24 -50 75 -99 133 -127 37 -18 70 -24 150 -27 113 -5 173 9 243 55 143 95 152
354 14 458 -74 57 -221 87 -322 65z m150 -44 c83 -34 134 -145 124 -271 -9
-124 -59 -202 -143 -225 -85 -24 -176 27 -211 118 -22 57 -24 198 -4 255 37
107 142 162 234 123z"/>
<path d="M2698 2463 c2 -141 1 -266 -2 -279 -4 -16 -17 -27 -39 -33 -23 -7 3
-9 103 -9 74 1 125 3 113 5 -40 8 -44 23 -41 192 l3 161 210 -185 c116 -102
212 -185 215 -185 3 0 4 113 2 251 -2 138 -1 262 3 276 3 13 16 28 28 33 15 6
-17 9 -98 9 -103 1 -116 -1 -95 -12 25 -13 25 -13 28 -181 l2 -168 -202 179
c-112 98 -210 183 -218 190 -13 10 -15 -18 -12 -244z"/>
<path d="M3331 2640 c1 -61 2 -69 10 -44 15 54 42 69 123 69 l71 0 3 -233 c2
-244 -1 -266 -41 -282 -14 -6 23 -9 108 -9 85 0 122 3 108 9 -40 16 -43 38
-41 282 l3 233 66 3 c76 3 112 -17 128 -71 8 -27 9 -20 10 43 l1 75 -275 0
-275 0 1 -75z"/>
<path d="M4275 2710 c-27 -5 -118 -9 -202 -9 l-152 -1 24 -25 25 -24 0 -226
c0 -236 -4 -259 -43 -275 -14 -5 61 -9 200 -9 l221 -1 16 69 c22 96 20 112 -7
60 -37 -70 -74 -89 -173 -89 l-84 0 0 110 0 110 64 0 c70 0 111 -22 119 -63 2
-12 5 25 5 83 0 77 -2 97 -9 75 -13 -44 -35 -55 -111 -55 l-69 0 3 113 3 112
72 3 c86 3 130 -14 139 -56 11 -51 12 -47 13 31 1 42 0 76 -1 76 -2 -1 -25 -5
-53 -9z"/>
<path d="M4867 2710 c-167 -30 -257 -147 -245 -319 8 -109 62 -187 163 -233
43 -20 66 -23 170 -23 113 0 123 2 168 28 68 40 76 58 68 142 -8 72 -10 71
-30 -2 -28 -103 -134 -162 -241 -133 -61 16 -97 47 -125 105 -49 101 -39 253
22 333 51 67 157 91 238 53 47 -21 68 -43 95 -97 l19 -39 1 77 0 77 -51 15
c-66 20 -189 28 -252 16z"/>
<path d="M6224 2688 c25 -9 45 -45 162 -285 117 -239 154 -300 154 -251 0 13
215 473 236 506 8 13 25 27 37 32 15 6 -4 9 -63 9 -62 0 -80 -2 -67 -10 9 -5
17 -16 17 -24 0 -8 -31 -85 -69 -172 -63 -142 -71 -156 -79 -133 -6 14 -35 83
-66 154 -31 72 -56 138 -56 147 0 10 8 23 18 28 12 7 -22 10 -118 10 -106 0
-129 -3 -106 -11z"/>
</g>
</svg>
